<?xml version="1.0" encoding="UTF-8"?><svg id="Flat" xmlns="http://www.w3.org/2000/svg" viewBox="0 0 658.23 675"><defs><style>.cls-1{stroke-width:0px;}</style></defs><path class="cls-1" d="M180.4,39.41c41.22,44.12,428.1,429.35,431,429.35,2.07,0,3.73-.62,3.73-1.66,0-.83,2.9-4.56,6.21-8.49,8.28-9.32,25.27-43.08,31.07-61.31,2.9-9.32,4.97-22.37,5.59-36.24,1.24-24.85-2.49-44.74-13.67-70.21-3.52-7.87-6.42-17.19-6.42-20.71s3.11-14.91,7.04-25.48c9.94-27.34,12.43-39.35,12.43-61.72,0-24.65-3.11-37.49-14.5-61.51-20.3-42.25-58.2-76.84-97.14-87.82l-16.57-4.76-179.98-.62-180.19-.83,11.39,12.01ZM521.93,111.7c15.12,7.25,32.31,21.13,39.14,31.48,7.46,11.39,12.63,30.86,12.43,48.05,0,18.43-4.56,33.35-13.88,46.81l-6.83,9.73-23.2-22.58c-12.84-12.43-39.56-38.52-59.44-57.99-19.88-19.68-42.67-41.84-50.74-49.29l-14.5-13.67,51.78.41,51.78.62,13.46,6.42Z"/><path class="cls-1" d="M0,110.04v81.19l123.03,122.61c67.73,67.52,141.67,141.25,164.24,163.83l41.22,40.8h84.92l84.71-.21-48.05-47.01c-42.25-41.42-129.86-127.79-319.78-315.23C46.19,72.97,9.73,37.34,4.56,32.99l-4.56-3.94v80.98Z"/><path class="cls-1" d="M0,434.17v84.3h166.31l-11.39-12.01c-6.21-6.42-23.82-24.44-39.14-39.77-15.33-15.53-44.74-45.36-65.45-66.28-20.5-21.13-40.39-41.01-43.91-44.32l-6.42-6.21v84.3Z"/><path class="cls-1" d="M154.92,552.02c-10.56,2.69-18.23,12.22-18.23,22.16,0,9.11,6.63,16.57,22.37,24.85,6.63,3.73,9.73,6.63,9.73,9.53,0,5.59-8.91,6.63-17.81,2.07-6.42-3.31-6.63-3.31-11.81,1.66-3.11,3.31-4.56,6.42-3.94,8.7,1.86,4.35,17.4,11.39,25.89,11.39,15.53,0,29.62-11.18,30.03-23.61.21-10.56-5.8-17.81-20.92-25.06-14.71-7.04-17.6-13.46-6.01-13.46,3.52,0,8.08,1.04,9.73,2.07,3.94,2.49,14.71-7.25,13.05-11.81-2.69-7.04-20.3-11.81-32.1-8.49Z"/><path class="cls-1" d="M484.23,552.23c-24.44,8.08-35,43.08-19.05,63.17,9.94,12.22,21.95,17.4,38.52,16.57,11.39-.62,15.53-1.86,22.58-6.83,18.23-12.84,22.99-36.87,11.18-56.13-3.94-6.42-9.11-11.6-14.08-13.88-9.73-4.76-29-6.21-39.14-2.9ZM515.3,575.43c8.08,6.83,9.94,15.33,5.59,24.65-4.76,10.15-15.53,14.91-26.1,11.81-14.5-4.35-20.09-17.81-13.26-31.27,4.14-7.87,8.49-10.15,19.05-10.36,6.21,0,10.36,1.45,14.71,5.18Z"/><path class="cls-1" d="M196.76,560.93v9.32h18.64v60.06h22.78v-60.06h18.64v-18.64h-60.06v9.32Z"/><path class="cls-1" d="M265.11,580.19c0,32.1,2.07,39.14,14.71,47.64,14.5,10.15,43.7,2.28,49.71-13.46,1.04-2.69,1.86-18.02,1.86-33.97v-28.79h-20.3l-.83,28.17c-.62,25.06-1.04,28.37-4.56,31.07-5.59,3.94-10.77,3.73-15.74-1.24-3.73-3.73-4.14-6.83-4.14-31.07v-26.92h-20.71v28.58Z"/><path class="cls-1" d="M345.47,552.85c-1.04.83-1.66,18.64-1.66,39.56v37.9h20.3c29-.21,42.04-7.04,48.05-25.68,5.8-17.81-2.9-41.63-17.6-48.67-6.83-3.31-46.6-5.8-49.09-3.11ZM387.92,578.74c12.01,13.05,2.49,32.93-16.15,32.93h-5.18v-41.84l7.87,1.24c4.56.83,9.94,3.73,13.46,7.66Z"/><path class="cls-1" d="M426.03,553.06c-.83.62-1.45,18.43-1.45,39.35v37.9h20.71v-78.7h-8.91c-4.97,0-9.73.62-10.36,1.45Z"/></svg>