<?xml version="1.0" standalone="no"?>
<!DOCTYPE svg PUBLIC "-//W3C//DTD SVG 20010904//EN"
 "http://www.w3.org/TR/2001/REC-SVG-20010904/DTD/svg10.dtd">
<svg version="1.0" xmlns="http://www.w3.org/2000/svg"
 width="500.000000pt" height="500.000000pt" viewBox="0 0 500.000000 500.000000"
 preserveAspectRatio="xMidYMid meet">

<g transform="translate(0.000000,500.000000) scale(0.100000,-0.100000)"
fill="#000000" stroke="none">
<path d="M1801 3973 c199 -213 2067 -2073 2081 -2073 10 0 18 3 18 8 0 4 14
22 30 41 40 45 122 208 150 296 14 45 24 108 27 175 6 120 -12 216 -66 339
-17 38 -31 83 -31 100 0 17 15 72 34 123 48 132 60 190 60 298 0 119 -15 181
-70 297 -98 204 -281 371 -469 424 l-80 23 -869 3 -870 4 55 -58z m1649 -349
c73 -35 156 -102 189 -152 36 -55 61 -149 60 -232 0 -89 -22 -161 -67 -226
l-33 -47 -112 109 c-62 60 -191 186 -287 280 -96 95 -206 202 -245 238 l-70
66 250 -2 250 -3 65 -31z"/>
<path d="M930 3632 l0 -392 594 -592 c327 -326 684 -682 793 -791 l199 -197
410 0 409 1 -232 227 c-204 200 -627 617 -1544 1522 -406 401 -582 573 -607
594 l-22 19 0 -391z"/>
<path d="M930 2067 l0 -407 402 0 401 0 -55 58 c-30 31 -115 118 -189 192 -74
75 -216 219 -316 320 -99 102 -195 198 -212 214 l-31 30 0 -407z"/>
<path d="M1678 1498 c-51 -13 -88 -59 -88 -107 0 -44 32 -80 108 -120 32 -18
47 -32 47 -46 0 -27 -43 -32 -86 -10 -31 16 -32 16 -57 -8 -15 -16 -22 -31
-19 -42 9 -21 84 -55 125 -55 75 0 143 54 145 114 1 51 -28 86 -101 121 -71
34 -85 65 -29 65 17 0 39 -5 47 -10 19 -12 71 35 63 57 -13 34 -98 57 -155 41z"/>
<path d="M3268 1497 c-118 -39 -169 -208 -92 -305 48 -59 106 -84 186 -80 55
3 75 9 109 33 88 62 111 178 54 271 -19 31 -44 56 -68 67 -47 23 -140 30 -189
14z m150 -112 c39 -33 48 -74 27 -119 -23 -49 -75 -72 -126 -57 -70 21 -97 86
-64 151 20 38 41 49 92 50 30 0 50 -7 71 -25z"/>
<path d="M1880 1455 l0 -45 45 0 45 0 0 -145 0 -145 55 0 55 0 0 145 0 145 45
0 45 0 0 45 0 45 -145 0 -145 0 0 -45z"/>
<path d="M2210 1362 c0 -155 10 -189 71 -230 70 -49 211 -11 240 65 5 13 9 87
9 164 l0 139 -49 0 -49 0 -4 -136 c-3 -121 -5 -137 -22 -150 -27 -19 -52 -18
-76 6 -18 18 -20 33 -20 150 l0 130 -50 0 -50 0 0 -138z"/>
<path d="M2598 1494 c-5 -4 -8 -90 -8 -191 l0 -183 98 0 c140 1 203 34 232
124 28 86 -14 201 -85 235 -33 16 -225 28 -237 15z m205 -125 c58 -63 12 -159
-78 -159 l-25 0 0 101 0 101 38 -6 c22 -4 48 -18 65 -37z"/>
<path d="M2987 1493 c-4 -3 -7 -89 -7 -190 l0 -183 50 0 50 0 0 190 0 190 -43
0 c-24 0 -47 -3 -50 -7z"/>
</g>
</svg>
